<svg width="934" height="345" version="1.1" viewBox="-1 -1 934 345" xmlns="http://www.w3.org/2000/svg">
 <path d="m931.1 342.1h-930.2v-341.2h930.2z" fill="#f6f8fa" stop-color="#000000" stroke="#e6e6eb" stroke-opacity=".9953" stroke-width="3.77"/>
 <path d="m234.5 109.5c-6.461 1.52-13.99 2.128-22.73 2.128-3.041 0-6.309-0.1511-9.577-0.4552v3.267c7.525 0 9.958 4.41 9.958 13.68v2.861l-17.48 4.685 2.198 8.201 15.28-4.095v77.05c0 8.666-2.737 11.18-9.958 11.18v3.267c4.105-0.152 13.45-0.6079 21.44-0.6079 7.601 0 15.66 0.4559 19.31 0.6079v-3.267c-6.157 0-8.438-2.51-8.438-11.18v-43.4c0-10.57 6.918-18.02 15.51-18.02 7.753 0 9.577 5.244 9.577 13v48.42c0 8.666-2.204 11.18-8.362 11.18v3.267c3.801-0.152 12.24-0.6079 20.22-0.6079 7.601 0 16.57 0.4559 20.52 0.6079v-3.267c-7.221 0-9.958-2.51-9.958-11.18v-41.96c0-10.57-1.444-16.27-4.865-20.22-3.193-3.649-8.285-6.081-17.18-6.081-10.95 0-20.3 3.877-25.46 14.44v-29.23l15.96-4.277-2.197-8.201-13.76 3.687z" fill="#4ba6ff" stroke-width="3.892"/>
 <g fill="#24292e">
  <path d="m317.9 110.6c-8.742 0-14.21 4.561-14.21 12.01 0 7.525 5.473 12.09 14.21 12.09 8.59 0 14.14-4.561 14.14-12.09 0-7.449-5.549-12.01-14.14-12.01zm12.24 38.46c-6.537 1.52-14.06 2.204-22.73 2.204-3.117 0-6.385-0.228-9.654-0.5321v3.269c7.525 0 9.958 4.409 9.958 13.76v49.1c0 8.666-2.736 11.17-9.958 11.17v3.269c4.105-0.152 13.45-0.6081 21.51-0.6081 8.133 0 16.87 0.4561 20.83 0.6081v-3.269c-7.297 0-9.958-2.508-9.958-11.17z"/>
  <path d="m378.4 150.8v-25.62c-6.461 3.497-13.68 4.941-22.42 5.017v20.6h-13.07v3.117h13.07v52.53c0 10.87 1.14 17.18 5.625 21.74 3.497 3.497 8.59 5.245 15.58 5.245 11.48 0 17.86-6.689 21.28-15.96l-2.584-1.444c-3.041 6.917-6.841 9.35-10.64 9.35-4.561 0-6.841-2.28-6.841-8.666v-62.79h18.4v-3.117z"/>
  <path d="m441.3 148.6c-22.04 0-38.46 14.75-38.46 42.87 0 29.19 15.96 42.04 36.26 42.04 17.79 0 27.36-12.92 30.94-24.55l-2.736-0.9882c-6.309 10.41-14.59 12.69-20.37 12.69-10.26 0-20.6-7.221-20.6-31.39 0-21.13 6.765-36.87 19.69-36.87 4.105 0 7.753 1.596 9.35 3.725-5.549 1.52-10.26 6.233-10.26 12.77 0 6.993 4.637 11.55 12.01 11.55 7.145 0 12.31-5.169 12.31-12.54 0-6.157-3.345-11.33-8.59-14.52-4.485-2.812-11.48-4.789-19.54-4.789z"/>
  <path d="m509.7 109.5c-6.461 1.52-13.99 2.128-22.73 2.128-3.041 0-6.309-0.152-9.578-0.4561v3.269c7.525 0 9.958 4.409 9.958 13.68v88.71c0 8.666-2.736 11.17-9.958 11.17v3.269c4.105-0.152 13.45-0.6081 21.44-0.6081 7.601 0 15.66 0.4561 19.31 0.6081v-3.269c-6.157 0-8.437-2.508-8.437-11.17v-43.4c0-10.57 6.917-18.02 15.51-18.02 7.753 0 9.578 5.245 9.578 13v48.42c0 8.666-2.204 11.17-8.361 11.17v3.269c3.801-0.152 12.24-0.6081 20.22-0.6081 7.601 0 16.57 0.4561 20.52 0.6081v-3.269c-7.221 0-9.958-2.508-9.958-11.17v-41.96c0-10.57-1.444-16.27-4.865-20.22-3.193-3.649-8.285-6.081-17.18-6.081-10.95 0-20.3 3.877-25.46 14.44z"/>
  <path d="m590.1 209.4c-8.133 0-13.23 4.561-13.23 12.09 0 7.449 5.093 12.01 13.23 12.01s13.3-4.561 13.3-12.01c0-7.525-5.169-12.09-13.3-12.09z"/>
  <path d="m656 109.5c-8.742 0-16.8 3.345-21.36 7.829-7.221 6.993-9.806 15.2-9.806 33.52h-10.57v3.117h10.57v62.86c0 8.666-2.66 11.17-9.958 11.17v3.269c3.953-0.152 12.31-0.6081 20.22-0.6081 10.79 0 21.44 0.4561 26.83 0.6081v-3.269c-9.198 0-14.67-2.66-14.67-12.77v-61.27h16.65v-3.117h-16.65v-14.14c0-12.01 0.7601-17.18 2.889-20.3 1.672-2.508 4.409-4.105 8.437-4.105 3.041 0 4.941 0.9882 5.625 2.204-6.005 1.748-9.122 6.233-9.122 11.55 0 6.917 4.865 11.1 11.86 11.1 6.537 0 11.02-5.093 11.02-10.87 0-5.169-2.356-9.198-5.321-11.63-4.181-3.117-9.426-5.169-16.65-5.169z"/>
  <path d="m723.1 148.6c-9.806 0-17.33 6.613-21.06 14.97v-14.52c-6.537 1.52-14.06 2.204-22.73 2.204-3.117 0-6.385-0.228-9.654-0.5321v3.269c7.525 0 9.958 4.409 9.958 13.76v49.1c0 8.666-2.736 11.17-9.958 11.17v3.269c4.257-0.152 13.76-0.6081 22.27-0.6081 9.806 0 19.92 0.4561 24.7 0.6081v-3.269c-9.806 0-14.59-2.736-14.59-12.77v-41.2c0-8.361 5.853-18.7 14.14-20.07 0.7601-0.228 1.52-0.3801 2.204-0.3801 0.7601 0 1.444 0.152 2.052 0.3801-3.877 2.584-6.841 6.309-6.841 12.01 0 6.081 4.333 10.03 11.63 10.03s12.09-5.397 12.09-13.07c0-6.993-4.105-14.37-14.21-14.37z"/>
 </g>
</svg>
