<svg width="600" height="200" version="1.1" viewBox="-1 -1 600 200" xmlns="http://www.w3.org/2000/svg">
 <g stroke-width="1.013">
  <path d="m363.3 80.32c6.186 0 11.79 1.277 16.79 3.83 5.008 2.455 8.932 6.285 11.79 11.49 2.946 5.204 4.419 11.93 4.419 20.18v45.66h-27.99v-41.09c0-5.695-1.179-9.817-3.535-12.38-2.258-2.651-5.45-3.977-9.574-3.977-2.946 0-5.647 0.6874-8.102 2.062-2.455 1.277-4.37 3.289-5.744 6.038-1.375 2.749-2.062 6.333-2.062 10.76v38.59h-27.99v-126.3h27.99v69.17l-6.481-6.627c3.044-5.793 7.217-10.11 12.52-12.96 5.302-2.946 11.29-4.419 17.97-4.419z" fill="#4d4d5d" style="font-variation-settings:'wght' 800"/>
  <path d="m56.89 35.18-18.26 9.472v-9.449h-27.99v23.97l-11.63 6.033v13.26l57.88-30.02v-13.26zm-18.26 30.38-27.99 14.52v81.41h27.99v-38.59c0-4.421 0.6844-8.008 2.06-10.76 1.375-2.749 3.291-4.761 5.746-6.038 2.455-1.375 5.157-2.061 8.102-2.061 4.123 0 7.313 1.325 9.574 3.975 2.356 2.555 3.535 6.681 3.535 12.38v41.09h27.99v-45.66c0-8.251-1.473-14.98-4.419-20.18-2.852-5.209-6.779-9.042-11.79-11.49-5.002-2.553-10.61-3.832-16.79-3.832v0.0566c-6.683 0-12.67 1.475-17.97 4.42-2.211 1.188-4.215 2.647-6.033 4.349v-23.57z" fill="#f50057" style="font-variation-settings:'wght' 800"/>
  <path d="m127.1 35.18c-5.108 0.0016-9.237 1.426-12.38 4.272-3.142 2.846-4.713 6.38-4.713 10.6-2e-3 4.22 1.569 7.755 4.713 10.6 3.144 2.847 7.27 4.272 12.38 4.272v0.0047c5.206 0 9.331-1.425 12.38-4.272 3.141-2.947 4.713-6.628 4.713-11.05 0-4.221-1.57-7.657-4.713-10.31-3.144-2.749-7.269-4.126-12.38-4.126zm-13.97 46.49v79.85h27.99v-79.85z" fill="#f50057" style="font-variation-settings:'wght' 800"/>
  <path d="m162.5 63.85v18.63h-11.64v20.91h11.64v28.94c0 10.21 2.847 17.87 8.541 22.98 5.691 5.008 13.64 7.512 23.86 7.512l5e-3 -5e-3c3.733 0 7.316-0.3931 10.76-1.179 3.437-0.6876 6.335-1.816 8.689-3.387l-6.922-19.59c-2.356 1.67-5.203 2.504-8.541 2.504-2.455 1e-5 -4.469-0.7852-6.04-2.356-1.571-1.67-2.356-3.929-2.356-6.776v-28.65h18.26v-20.91h-18.26v-18.63h-27.99z" fill="#4d4d5d" style="font-variation-settings:'wght' 800"/>
  <path d="m263.5 162.8q-13.25 0-23.71-5.302-10.31-5.302-16.2-14.58-5.892-9.425-5.892-21.5 0-12.08 5.892-21.36 5.892-9.277 16.2-14.43 10.46-5.302 23.71-5.302 13.55 0 23.42 5.744 9.871 5.744 14 16.2l-21.65 11.05q-2.799-5.596-6.923-8.102-4.125-2.651-8.987-2.651-4.862 0-8.838 2.21-3.977 2.21-6.333 6.481-2.21 4.125-2.21 10.17 0 6.186 2.21 10.46 2.356 4.271 6.333 6.481 3.977 2.209 8.838 2.209t8.987-2.504q4.125-2.651 6.923-8.251l21.65 11.05q-4.125 10.46-14 16.2-9.871 5.744-23.42 5.744z" fill="#4d4d5d" style="font-variation-settings:'wght' 800"/>
  <path d="m425.5 162.8q-7.071 0-11.93-4.713-4.861-4.713-4.861-11.93 0-7.512 4.861-11.93 4.861-4.566 11.93-4.566 7.07 0 11.93 4.566 4.861 4.419 4.861 11.93 0 7.217-4.861 11.93t-11.93 4.713z" fill="#f50057" style="font-variation-settings:'wght' 800"/>
  <path d="m492 50.9c-10.71 0-18.95 2.897-24.75 8.689-5.679 5.682-8.525 13.32-8.541 22.9h-11.64v20.91h11.63v58.12l27.99 2e-3v-58.12h18.26v-20.91h-18.98c0.0553-3.34 0.8322-5.823 2.345-7.432 1.669-1.768 3.977-2.65 6.923-2.65 1.473 0 2.946 0.2445 4.419 0.7355 1.473 0.3929 2.799 0.9331 3.977 1.62l6.922-19.74c-2.258-1.375-5.057-2.406-8.392-3.093-3.341-0.6872-6.729-1.03-10.17-1.03z" fill="#4d4d5d" style="font-variation-settings:'wght' 800"/>
  <path d="m516.2 161.5v-79.85h26.66v23.27l-3.977-6.627q3.535-8.987 11.49-13.41 7.954-4.566 19.29-4.566v25.18q-1.915-0.2946-3.387-0.2946-1.325-0.1472-2.946-0.1472-8.541 0-13.84 4.713-5.302 4.566-5.302 15.03v36.68z" fill="#4d4d5d" style="font-variation-settings:'wght' 800"/>
 </g>
</svg>
