<svg width="246.2" height="246.2" version="1.1" xmlns="http://www.w3.org/2000/svg">
 <path d="m245.4 245.4h-244.6v-244.6h244.6z" fill="#f6f8fa" stop-color="#000000" stroke="#e6e6eb" stroke-opacity=".9953" stroke-width="1.637"/>
 <path d="m111.8 45.24c-8.261 1.944-17.88 2.721-29.06 2.721-3.888 0-8.067-0.1933-12.25-0.582v4.178c9.622 0 12.73 5.638 12.73 17.5v3.658l-22.35 5.99 2.811 10.49 19.54-5.236v98.53c0 11.08-3.499 14.29-12.73 14.29v4.178c5.248-0.1944 17.2-0.7773 27.41-0.7773 9.719 0 20.02 0.583 24.69 0.7773v-4.178c-7.873 0-10.79-3.209-10.79-14.29v-55.5c0-13.51 8.845-23.04 19.83-23.04 9.914 0 12.25 6.705 12.25 16.62v61.91c0 11.08-2.819 14.29-10.69 14.29v4.178c4.86-0.1944 15.65-0.7773 25.85-0.7773 9.719 0 21.19 0.583 26.24 0.7773v-4.178c-9.233 0-12.73-3.209-12.73-14.29v-53.65c0-13.51-1.847-20.8-6.221-25.85-4.082-4.665-10.59-7.775-21.96-7.775-14 0-25.95 4.957-32.56 18.47v-37.37l20.41-5.469-2.809-10.49-17.6 4.715z" fill="#4d4d5d"/>
</svg>
